M48
; DRILL file {KiCad (6.0.8)} date Tue Nov  8 10:52:10 2022
; FORMAT={-:-/ absolute / inch / decimal}
; #@! TF.CreationDate,2022-11-08T10:52:10+01:00
; #@! TF.GenerationSoftware,Kicad,Pcbnew,(6.0.8)
; #@! TF.FileFunction,Plated,1,2,PTH
FMAT,2
INCH
; #@! TA.AperFunction,Plated,PTH,ComponentDrill
T1C0.0315
; #@! TA.AperFunction,Plated,PTH,ComponentDrill
T2C0.0354
; #@! TA.AperFunction,Plated,PTH,ComponentDrill
T3C0.0394
; #@! TA.AperFunction,Plated,PTH,ComponentDrill
T4C0.0591
%
G90
G05
T1
X4.7161Y-3.0917
X4.7161Y-3.2917
X4.8161Y-3.1917
X5.748Y-3.622
X5.748Y-3.722
X5.748Y-3.822
X5.748Y-3.922
X6.048Y-3.622
X6.048Y-3.722
X6.048Y-3.822
X6.048Y-3.922
X7.7953Y-2.874
X7.7953Y-2.9528
X7.7953Y-3.0315
X7.9459Y-3.5045
X7.9459Y-3.6045
X7.9459Y-3.7045
X7.9459Y-3.8045
X8.1102Y-2.8701
X8.1102Y-2.9488
X8.1102Y-3.0276
X8.2459Y-3.5045
X8.2459Y-3.6045
X8.2459Y-3.7045
X8.2459Y-3.8045
X8.4252Y-2.874
X8.4252Y-2.9528
X8.4252Y-3.0315
X8.7402Y-2.874
X8.7402Y-2.9528
X8.7402Y-3.0315
T2
X4.8425Y-2.4409
X4.8425Y-2.7559
X4.9425Y-2.4409
X4.9425Y-2.7559
X5.1181Y-2.4409
X5.1181Y-2.7559
X5.2181Y-2.4409
X5.2181Y-2.7559
X5.3937Y-2.4409
X5.3937Y-2.7559
X5.4937Y-2.4409
X5.4937Y-2.7559
X5.6693Y-2.4409
X5.6693Y-2.7559
X5.7693Y-2.4409
X5.7693Y-2.7559
X7.8346Y-2.4409
X7.9346Y-2.4409
X8.1102Y-2.4409
X8.2102Y-2.4409
X8.3858Y-2.4409
X8.4858Y-2.4409
X8.6614Y-2.4409
X8.7614Y-2.4409
T3
X4.589Y-3.5016
X4.589Y-3.6016
X4.589Y-3.7016
X5.0421Y-3.065
X5.0421Y-3.165
X5.0421Y-3.265
X5.1047Y-3.4469
X5.1047Y-3.5469
X5.2252Y-3.065
X5.2252Y-3.165
X5.2252Y-3.265
X5.4083Y-3.065
X5.4083Y-3.165
T4
X7.7953Y-2.7913
X7.7953Y-3.1142
X8.1102Y-2.7874
X8.1102Y-3.1102
X8.4252Y-2.7913
X8.4252Y-3.1142
X8.7402Y-2.7913
X8.7402Y-3.1142
T0
M30
