%TF.GenerationSoftware,KiCad,Pcbnew,(6.0.8)*%
%TF.CreationDate,2022-11-08T10:52:10+01:00*%
%TF.ProjectId,TVZ_KTM_ApplicationBoard,54565a5f-4b54-44d5-9f41-70706c696361,rev?*%
%TF.SameCoordinates,Original*%
%TF.FileFunction,Profile,NP*%
%FSLAX46Y46*%
G04 Gerber Fmt 4.6, Leading zero omitted, Abs format (unit mm)*
G04 Created by KiCad (PCBNEW (6.0.8)) date 2022-11-08 10:52:10*
%MOMM*%
%LPD*%
G01*
G04 APERTURE LIST*
%TA.AperFunction,Profile*%
%ADD10C,0.100000*%
%TD*%
G04 APERTURE END LIST*
D10*
X121000000Y-58000000D02*
X149000000Y-58000000D01*
X195999999Y-51000001D02*
G75*
G03*
X195000001Y-50000001I-999999J1D01*
G01*
X245000001Y-105000001D02*
X177000001Y-105000001D01*
X120000000Y-51000000D02*
G75*
G03*
X119000000Y-50000000I-1000000J0D01*
G01*
X226000001Y-57000001D02*
X226000001Y-51000001D01*
X169000000Y-50000000D02*
X195000001Y-50000001D01*
X197000001Y-58000001D02*
X225000001Y-58000001D01*
X177000001Y-105000001D02*
X101000000Y-105000000D01*
X120000000Y-57000000D02*
G75*
G03*
X121000000Y-58000000I1000000J0D01*
G01*
X100000000Y-104000000D02*
G75*
G03*
X101000000Y-105000000I1000000J0D01*
G01*
X150000000Y-57000000D02*
X150000000Y-51000000D01*
X245999999Y-51000001D02*
G75*
G03*
X245000001Y-50000001I-999999J1D01*
G01*
X196000001Y-51000001D02*
X196000001Y-57000001D01*
X100000000Y-104000000D02*
X100000000Y-51000000D01*
X245000001Y-105000001D02*
G75*
G03*
X246000001Y-104000001I-1J1000001D01*
G01*
X151000000Y-50000000D02*
G75*
G03*
X150000000Y-51000000I0J-1000000D01*
G01*
X195999999Y-57000001D02*
G75*
G03*
X197000001Y-58000001I1000001J1D01*
G01*
X246000001Y-51000001D02*
X246000001Y-104000001D01*
X120000000Y-51000000D02*
X120000000Y-57000000D01*
X101000000Y-50000000D02*
X119000000Y-50000000D01*
X225000001Y-58000001D02*
G75*
G03*
X226000001Y-57000001I-1J1000001D01*
G01*
X227000001Y-50000001D02*
G75*
G03*
X226000001Y-51000001I-1J-999999D01*
G01*
X101000000Y-50000000D02*
G75*
G03*
X100000000Y-51000000I0J-1000000D01*
G01*
X151000000Y-50000000D02*
X169000000Y-50000000D01*
X149000000Y-58000000D02*
G75*
G03*
X150000000Y-57000000I0J1000000D01*
G01*
X227000001Y-50000001D02*
X245000001Y-50000001D01*
M02*
