%TF.GenerationSoftware,KiCad,Pcbnew,(6.0.8)*%
%TF.CreationDate,2022-11-08T10:52:10+01:00*%
%TF.ProjectId,TVZ_KTM_ApplicationBoard,54565a5f-4b54-44d5-9f41-70706c696361,rev?*%
%TF.SameCoordinates,Original*%
%TF.FileFunction,Copper,L2,Bot*%
%TF.FilePolarity,Positive*%
%FSLAX46Y46*%
G04 Gerber Fmt 4.6, Leading zero omitted, Abs format (unit mm)*
G04 Created by KiCad (PCBNEW (6.0.8)) date 2022-11-08 10:52:10*
%MOMM*%
%LPD*%
G01*
G04 APERTURE LIST*
%TA.AperFunction,ComponentPad*%
%ADD10C,1.440000*%
%TD*%
%TA.AperFunction,ComponentPad*%
%ADD11R,1.700000X1.700000*%
%TD*%
%TA.AperFunction,ComponentPad*%
%ADD12O,1.700000X1.700000*%
%TD*%
%TA.AperFunction,ComponentPad*%
%ADD13R,1.600000X1.600000*%
%TD*%
%TA.AperFunction,ComponentPad*%
%ADD14O,1.600000X1.600000*%
%TD*%
%TA.AperFunction,ComponentPad*%
%ADD15C,2.100000*%
%TD*%
%TA.AperFunction,ComponentPad*%
%ADD16C,1.524000*%
%TD*%
%TA.AperFunction,ComponentPad*%
%ADD17R,1.800000X1.800000*%
%TD*%
%TA.AperFunction,ComponentPad*%
%ADD18C,1.800000*%
%TD*%
%TA.AperFunction,SMDPad,CuDef*%
%ADD19R,3.000000X1.000000*%
%TD*%
G04 APERTURE END LIST*
D10*
%TO.P,RV1,1,1*%
%TO.N,+3V3*%
X119790000Y-83610000D03*
%TO.P,RV1,2,2*%
%TO.N,POT*%
X122330000Y-81070000D03*
%TO.P,RV1,3,3*%
%TO.N,GND*%
X119790000Y-78530000D03*
%TD*%
D11*
%TO.P,JP5,1,A*%
%TO.N,+3V3*%
X128070000Y-77850000D03*
D12*
%TO.P,JP5,2,C*%
%TO.N,Net-(JP5-Pad2)*%
X128070000Y-80390000D03*
%TO.P,JP5,3,B*%
%TO.N,GND*%
X128070000Y-82930000D03*
%TD*%
D11*
%TO.P,JP4,1,A*%
%TO.N,+3V3*%
X132720000Y-77850000D03*
D12*
%TO.P,JP4,2,C*%
%TO.N,Net-(JP4-Pad2)*%
X132720000Y-80390000D03*
%TO.P,JP4,3,B*%
%TO.N,GND*%
X132720000Y-82930000D03*
%TD*%
D11*
%TO.P,JP3,1,A*%
%TO.N,Net-(JP3-Pad1)*%
X129660000Y-87550000D03*
D12*
%TO.P,JP3,2,B*%
%TO.N,/SDA*%
X129660000Y-90090000D03*
%TD*%
D11*
%TO.P,JP2,1,A*%
%TO.N,Net-(JP2-Pad1)*%
X137370000Y-77850000D03*
D12*
%TO.P,JP2,2,B*%
%TO.N,/SCL*%
X137370000Y-80390000D03*
%TD*%
D11*
%TO.P,JP1,1,A*%
%TO.N,+3V3*%
X116560000Y-88940000D03*
D12*
%TO.P,JP1,2,C*%
%TO.N,Net-(JP1-Pad2)*%
X116560000Y-91480000D03*
%TO.P,JP1,3,B*%
%TO.N,GND*%
X116560000Y-94020000D03*
%TD*%
D13*
%TO.P,U3,1,TXD*%
%TO.N,TXD_2*%
X201825000Y-89015000D03*
D14*
%TO.P,U3,2,VSS*%
%TO.N,GND*%
X201825000Y-91555000D03*
%TO.P,U3,3,VDD*%
%TO.N,+3V3*%
X201825000Y-94095000D03*
%TO.P,U3,4,RXD*%
%TO.N,RXD_2*%
X201825000Y-96635000D03*
%TO.P,U3,5,Vref*%
%TO.N,unconnected-(U3-Pad5)*%
X209445000Y-96635000D03*
%TO.P,U3,6,CANL*%
%TO.N,Net-(R18-Pad2)*%
X209445000Y-94095000D03*
%TO.P,U3,7,CANH*%
%TO.N,Net-(R18-Pad1)*%
X209445000Y-91555000D03*
%TO.P,U3,8,Rs*%
%TO.N,GND*%
X209445000Y-89015000D03*
%TD*%
D15*
%TO.P,SW4,*%
%TO.N,*%
X222000000Y-79100000D03*
X222000000Y-70900000D03*
D16*
%TO.P,SW4,1,A*%
%TO.N,unconnected-(SW4-Pad1)*%
X222000000Y-73000000D03*
%TO.P,SW4,2,B*%
%TO.N,PB10_1*%
X222000000Y-75000000D03*
%TO.P,SW4,3,C*%
%TO.N,GND*%
X222000000Y-77000000D03*
%TD*%
D15*
%TO.P,SW3,*%
%TO.N,*%
X206000000Y-79000000D03*
X206000000Y-70800000D03*
D16*
%TO.P,SW3,1,A*%
%TO.N,unconnected-(SW3-Pad1)*%
X206000000Y-72900000D03*
%TO.P,SW3,2,B*%
%TO.N,PB1_1*%
X206000000Y-74900000D03*
%TO.P,SW3,3,C*%
%TO.N,GND*%
X206000000Y-76900000D03*
%TD*%
D15*
%TO.P,SW2,*%
%TO.N,*%
X214000000Y-79100000D03*
X214000000Y-70900000D03*
D16*
%TO.P,SW2,1,A*%
%TO.N,unconnected-(SW2-Pad1)*%
X214000000Y-73000000D03*
%TO.P,SW2,2,B*%
%TO.N,PB2_1*%
X214000000Y-75000000D03*
%TO.P,SW2,3,C*%
%TO.N,GND*%
X214000000Y-77000000D03*
%TD*%
D15*
%TO.P,SW1,*%
%TO.N,*%
X198000000Y-79100000D03*
X198000000Y-70900000D03*
D16*
%TO.P,SW1,1,A*%
%TO.N,unconnected-(SW1-Pad1)*%
X198000000Y-73000000D03*
%TO.P,SW1,2,B*%
%TO.N,PB0_1*%
X198000000Y-75000000D03*
%TO.P,SW1,3,C*%
%TO.N,GND*%
X198000000Y-77000000D03*
%TD*%
D17*
%TO.P,D12,1,K*%
%TO.N,GND*%
X144000000Y-70000000D03*
D18*
%TO.P,D12,2,A*%
%TO.N,Net-(D12-Pad2)*%
X146540000Y-70000000D03*
%TD*%
D17*
%TO.P,D11,1,K*%
%TO.N,GND*%
X137000000Y-70000000D03*
D18*
%TO.P,D11,2,A*%
%TO.N,Net-(D11-Pad2)*%
X139540000Y-70000000D03*
%TD*%
D17*
%TO.P,D10,1,K*%
%TO.N,GND*%
X130000000Y-70000000D03*
D18*
%TO.P,D10,2,A*%
%TO.N,Net-(D10-Pad2)*%
X132540000Y-70000000D03*
%TD*%
D17*
%TO.P,D9,1,K*%
%TO.N,GND*%
X123000000Y-70000000D03*
D18*
%TO.P,D9,2,A*%
%TO.N,Net-(D9-Pad2)*%
X125540000Y-70000000D03*
%TD*%
D17*
%TO.P,D8,1,K*%
%TO.N,GND*%
X144000000Y-62000000D03*
D18*
%TO.P,D8,2,A*%
%TO.N,Net-(D8-Pad2)*%
X146540000Y-62000000D03*
%TD*%
D17*
%TO.P,D7,1,K*%
%TO.N,GND*%
X137000000Y-62000000D03*
D18*
%TO.P,D7,2,A*%
%TO.N,Net-(D7-Pad2)*%
X139540000Y-62000000D03*
%TD*%
D17*
%TO.P,D6,1,K*%
%TO.N,GND*%
X130000000Y-62000000D03*
D18*
%TO.P,D6,2,A*%
%TO.N,Net-(D6-Pad2)*%
X132540000Y-62000000D03*
%TD*%
D17*
%TO.P,D5,1,K*%
%TO.N,GND*%
X123000000Y-62000000D03*
D18*
%TO.P,D5,2,A*%
%TO.N,Net-(D5-Pad2)*%
X125540000Y-62000000D03*
%TD*%
D17*
%TO.P,D4,1,K*%
%TO.N,GND*%
X220000000Y-62000000D03*
D18*
%TO.P,D4,2,A*%
%TO.N,Net-(D4-Pad2)*%
X222540000Y-62000000D03*
%TD*%
D17*
%TO.P,D3,1,K*%
%TO.N,GND*%
X213000000Y-62000000D03*
D18*
%TO.P,D3,2,A*%
%TO.N,Net-(D3-Pad2)*%
X215540000Y-62000000D03*
%TD*%
D17*
%TO.P,D2,1,K*%
%TO.N,GND*%
X206000000Y-62000000D03*
D18*
%TO.P,D2,2,A*%
%TO.N,Net-(D2-Pad2)*%
X208540000Y-62000000D03*
%TD*%
D17*
%TO.P,D1,1,K*%
%TO.N,GND*%
X199000000Y-62000000D03*
D18*
%TO.P,D1,2,A*%
%TO.N,Net-(D1-Pad2)*%
X201540000Y-62000000D03*
%TD*%
D13*
%TO.P,U2,1,TXD*%
%TO.N,TXD_1*%
X146000000Y-92000000D03*
D14*
%TO.P,U2,2,VSS*%
%TO.N,GND*%
X146000000Y-94540000D03*
%TO.P,U2,3,VDD*%
%TO.N,+3V3*%
X146000000Y-97080000D03*
%TO.P,U2,4,RXD*%
%TO.N,RXD_1*%
X146000000Y-99620000D03*
%TO.P,U2,5,Vref*%
%TO.N,unconnected-(U2-Pad5)*%
X153620000Y-99620000D03*
%TO.P,U2,6,CANL*%
%TO.N,Net-(R18-Pad2)*%
X153620000Y-97080000D03*
%TO.P,U2,7,CANH*%
%TO.N,Net-(R18-Pad1)*%
X153620000Y-94540000D03*
%TO.P,U2,8,Rs*%
%TO.N,GND*%
X153620000Y-92000000D03*
%TD*%
D19*
%TO.P,J2,1,Pin_1*%
%TO.N,PC9_1*%
X162980000Y-56210000D03*
%TO.P,J2,2,Pin_2*%
%TO.N,PC8_1*%
X168020000Y-56210000D03*
%TO.P,J2,3,Pin_3*%
%TO.N,unconnected-(J2-Pad3)*%
X162980000Y-58750000D03*
%TO.P,J2,4,Pin_4*%
%TO.N,PC6_1*%
X168020000Y-58750000D03*
%TO.P,J2,5,Pin_5*%
%TO.N,unconnected-(J2-Pad5)*%
X162980000Y-61290000D03*
%TO.P,J2,6,Pin_6*%
%TO.N,unconnected-(J2-Pad6)*%
X168020000Y-61290000D03*
%TO.P,J2,7,Pin_7*%
%TO.N,unconnected-(J2-Pad7)*%
X162980000Y-63830000D03*
%TO.P,J2,8,Pin_8*%
%TO.N,unconnected-(J2-Pad8)*%
X168020000Y-63830000D03*
%TO.P,J2,9,Pin_9*%
%TO.N,GND*%
X162980000Y-66370000D03*
%TO.P,J2,10,Pin_10*%
%TO.N,unconnected-(J2-Pad10)*%
X168020000Y-66370000D03*
%TO.P,J2,11,Pin_11*%
%TO.N,unconnected-(J2-Pad11)*%
X162980000Y-68910000D03*
%TO.P,J2,12,Pin_12*%
%TO.N,unconnected-(J2-Pad12)*%
X168020000Y-68910000D03*
%TO.P,J2,13,Pin_13*%
%TO.N,unconnected-(J2-Pad13)*%
X162980000Y-71450000D03*
%TO.P,J2,14,Pin_14*%
%TO.N,unconnected-(J2-Pad14)*%
X168020000Y-71450000D03*
%TO.P,J2,15,Pin_15*%
%TO.N,PA7_BUSY*%
X162980000Y-73990000D03*
%TO.P,J2,16,Pin_16*%
%TO.N,unconnected-(J2-Pad16)*%
X168020000Y-73990000D03*
%TO.P,J2,17,Pin_17*%
%TO.N,unconnected-(J2-Pad17)*%
X162980000Y-76530000D03*
%TO.P,J2,18,Pin_18*%
%TO.N,unconnected-(J2-Pad18)*%
X168020000Y-76530000D03*
%TO.P,J2,19,Pin_19*%
%TO.N,PC7_1*%
X162980000Y-79070000D03*
%TO.P,J2,20,Pin_20*%
%TO.N,GND*%
X168020000Y-79070000D03*
%TO.P,J2,21,Pin_21*%
%TO.N,unconnected-(J2-Pad21)*%
X162980000Y-81610000D03*
%TO.P,J2,22,Pin_22*%
%TO.N,PB2_1*%
X168020000Y-81610000D03*
%TO.P,J2,23,Pin_23*%
%TO.N,PA8_STROBE*%
X162980000Y-84150000D03*
%TO.P,J2,24,Pin_24*%
%TO.N,PB1_1*%
X168020000Y-84150000D03*
%TO.P,J2,25,Pin_25*%
%TO.N,PB10_1*%
X162980000Y-86690000D03*
%TO.P,J2,26,Pin_26*%
%TO.N,unconnected-(J2-Pad26)*%
X168020000Y-86690000D03*
%TO.P,J2,27,Pin_27*%
%TO.N,unconnected-(J2-Pad27)*%
X162980000Y-89230000D03*
%TO.P,J2,28,Pin_28*%
%TO.N,unconnected-(J2-Pad28)*%
X168020000Y-89230000D03*
%TO.P,J2,29,Pin_29*%
%TO.N,unconnected-(J2-Pad29)*%
X162980000Y-91770000D03*
%TO.P,J2,30,Pin_30*%
%TO.N,unconnected-(J2-Pad30)*%
X168020000Y-91770000D03*
%TO.P,J2,31,Pin_31*%
%TO.N,unconnected-(J2-Pad31)*%
X162980000Y-94310000D03*
%TO.P,J2,32,Pin_32*%
%TO.N,unconnected-(J2-Pad32)*%
X168020000Y-94310000D03*
%TO.P,J2,33,Pin_33*%
%TO.N,unconnected-(J2-Pad33)*%
X162980000Y-96850000D03*
%TO.P,J2,34,Pin_34*%
%TO.N,unconnected-(J2-Pad34)*%
X168020000Y-96850000D03*
%TO.P,J2,35,Pin_35*%
%TO.N,unconnected-(J2-Pad35)*%
X162980000Y-99390000D03*
%TO.P,J2,36,Pin_36*%
%TO.N,unconnected-(J2-Pad36)*%
X168020000Y-99390000D03*
%TO.P,J2,37,Pin_37*%
%TO.N,unconnected-(J2-Pad37)*%
X162980000Y-101930000D03*
%TO.P,J2,38,Pin_38*%
%TO.N,unconnected-(J2-Pad38)*%
X168020000Y-101930000D03*
%TD*%
%TO.P,J3,1,Pin_1*%
%TO.N,unconnected-(J3-Pad1)*%
X177980001Y-56210001D03*
%TO.P,J3,2,Pin_2*%
%TO.N,unconnected-(J3-Pad2)*%
X183020001Y-56210001D03*
%TO.P,J3,3,Pin_3*%
%TO.N,unconnected-(J3-Pad3)*%
X177980001Y-58750001D03*
%TO.P,J3,4,Pin_4*%
%TO.N,unconnected-(J3-Pad4)*%
X183020001Y-58750001D03*
%TO.P,J3,5,Pin_5*%
%TO.N,unconnected-(J3-Pad5)*%
X177980001Y-61290001D03*
%TO.P,J3,6,Pin_6*%
%TO.N,unconnected-(J3-Pad6)*%
X183020001Y-61290001D03*
%TO.P,J3,7,Pin_7*%
%TO.N,unconnected-(J3-Pad7)*%
X177980001Y-63830001D03*
%TO.P,J3,8,Pin_8*%
%TO.N,GND*%
X183020001Y-63830001D03*
%TO.P,J3,9,Pin_9*%
%TO.N,unconnected-(J3-Pad9)*%
X177980001Y-66370001D03*
%TO.P,J3,10,Pin_10*%
%TO.N,unconnected-(J3-Pad10)*%
X183020001Y-66370001D03*
%TO.P,J3,11,Pin_11*%
%TO.N,unconnected-(J3-Pad11)*%
X177980001Y-68910001D03*
%TO.P,J3,12,Pin_12*%
%TO.N,unconnected-(J3-Pad12)*%
X183020001Y-68910001D03*
%TO.P,J3,13,Pin_13*%
%TO.N,unconnected-(J3-Pad13)*%
X177980001Y-71450001D03*
%TO.P,J3,14,Pin_14*%
%TO.N,unconnected-(J3-Pad14)*%
X183020001Y-71450001D03*
%TO.P,J3,15,Pin_15*%
%TO.N,unconnected-(J3-Pad15)*%
X177980001Y-73990001D03*
%TO.P,J3,16,Pin_16*%
%TO.N,+3V3*%
X183020001Y-73990001D03*
%TO.P,J3,17,Pin_17*%
%TO.N,unconnected-(J3-Pad17)*%
X177980001Y-76530001D03*
%TO.P,J3,18,Pin_18*%
%TO.N,unconnected-(J3-Pad18)*%
X183020001Y-76530001D03*
%TO.P,J3,19,Pin_19*%
%TO.N,GND*%
X177980001Y-79070001D03*
%TO.P,J3,20,Pin_20*%
X183020001Y-79070001D03*
%TO.P,J3,21,Pin_21*%
%TO.N,unconnected-(J3-Pad21)*%
X177980001Y-81610001D03*
%TO.P,J3,22,Pin_22*%
%TO.N,GND*%
X183020001Y-81610001D03*
%TO.P,J3,23,Pin_23*%
%TO.N,unconnected-(J3-Pad23)*%
X177980001Y-84150001D03*
%TO.P,J3,24,Pin_24*%
%TO.N,unconnected-(J3-Pad24)*%
X183020001Y-84150001D03*
%TO.P,J3,25,Pin_25*%
%TO.N,unconnected-(J3-Pad25)*%
X177980001Y-86690001D03*
%TO.P,J3,26,Pin_26*%
%TO.N,unconnected-(J3-Pad26)*%
X183020001Y-86690001D03*
%TO.P,J3,27,Pin_27*%
%TO.N,unconnected-(J3-Pad27)*%
X177980001Y-89230001D03*
%TO.P,J3,28,Pin_28*%
%TO.N,unconnected-(J3-Pad28)*%
X183020001Y-89230001D03*
%TO.P,J3,29,Pin_29*%
%TO.N,unconnected-(J3-Pad29)*%
X177980001Y-91770001D03*
%TO.P,J3,30,Pin_30*%
%TO.N,unconnected-(J3-Pad30)*%
X183020001Y-91770001D03*
%TO.P,J3,31,Pin_31*%
%TO.N,unconnected-(J3-Pad31)*%
X177980001Y-94310001D03*
%TO.P,J3,32,Pin_32*%
%TO.N,unconnected-(J3-Pad32)*%
X183020001Y-94310001D03*
%TO.P,J3,33,Pin_33*%
%TO.N,unconnected-(J3-Pad33)*%
X177980001Y-96850001D03*
%TO.P,J3,34,Pin_34*%
%TO.N,unconnected-(J3-Pad34)*%
X183020001Y-96850001D03*
%TO.P,J3,35,Pin_35*%
%TO.N,unconnected-(J3-Pad35)*%
X177980001Y-99390001D03*
%TO.P,J3,36,Pin_36*%
%TO.N,unconnected-(J3-Pad36)*%
X183020001Y-99390001D03*
%TO.P,J3,37,Pin_37*%
%TO.N,unconnected-(J3-Pad37)*%
X177980001Y-101930001D03*
%TO.P,J3,38,Pin_38*%
%TO.N,unconnected-(J3-Pad38)*%
X183020001Y-101930001D03*
%TD*%
%TO.P,J4,1,Pin_1*%
%TO.N,PC9_2*%
X238980001Y-56210001D03*
%TO.P,J4,2,Pin_2*%
%TO.N,PC8_2*%
X244020001Y-56210001D03*
%TO.P,J4,3,Pin_3*%
%TO.N,unconnected-(J4-Pad3)*%
X238980001Y-58750001D03*
%TO.P,J4,4,Pin_4*%
%TO.N,PC6_2*%
X244020001Y-58750001D03*
%TO.P,J4,5,Pin_5*%
%TO.N,unconnected-(J4-Pad5)*%
X238980001Y-61290001D03*
%TO.P,J4,6,Pin_6*%
%TO.N,unconnected-(J4-Pad6)*%
X244020001Y-61290001D03*
%TO.P,J4,7,Pin_7*%
%TO.N,unconnected-(J4-Pad7)*%
X238980001Y-63830001D03*
%TO.P,J4,8,Pin_8*%
%TO.N,unconnected-(J4-Pad8)*%
X244020001Y-63830001D03*
%TO.P,J4,9,Pin_9*%
%TO.N,GND*%
X238980001Y-66370001D03*
%TO.P,J4,10,Pin_10*%
%TO.N,unconnected-(J4-Pad10)*%
X244020001Y-66370001D03*
%TO.P,J4,11,Pin_11*%
%TO.N,unconnected-(J4-Pad11)*%
X238980001Y-68910001D03*
%TO.P,J4,12,Pin_12*%
%TO.N,unconnected-(J4-Pad12)*%
X244020001Y-68910001D03*
%TO.P,J4,13,Pin_13*%
%TO.N,unconnected-(J4-Pad13)*%
X238980001Y-71450001D03*
%TO.P,J4,14,Pin_14*%
%TO.N,unconnected-(J4-Pad14)*%
X244020001Y-71450001D03*
%TO.P,J4,15,Pin_15*%
%TO.N,PA7_BUSY*%
X238980001Y-73990001D03*
%TO.P,J4,16,Pin_16*%
%TO.N,unconnected-(J4-Pad16)*%
X244020001Y-73990001D03*
%TO.P,J4,17,Pin_17*%
%TO.N,unconnected-(J4-Pad17)*%
X238980001Y-76530001D03*
%TO.P,J4,18,Pin_18*%
%TO.N,unconnected-(J4-Pad18)*%
X244020001Y-76530001D03*
%TO.P,J4,19,Pin_19*%
%TO.N,PC7_2*%
X238980001Y-79070001D03*
%TO.P,J4,20,Pin_20*%
%TO.N,GND*%
X244020001Y-79070001D03*
%TO.P,J4,21,Pin_21*%
%TO.N,unconnected-(J4-Pad21)*%
X238980001Y-81610001D03*
%TO.P,J4,22,Pin_22*%
%TO.N,unconnected-(J4-Pad22)*%
X244020001Y-81610001D03*
%TO.P,J4,23,Pin_23*%
%TO.N,PA8_STROBE*%
X238980001Y-84150001D03*
%TO.P,J4,24,Pin_24*%
%TO.N,unconnected-(J4-Pad24)*%
X244020001Y-84150001D03*
%TO.P,J4,25,Pin_25*%
%TO.N,unconnected-(J4-Pad25)*%
X238980001Y-86690001D03*
%TO.P,J4,26,Pin_26*%
%TO.N,unconnected-(J4-Pad26)*%
X244020001Y-86690001D03*
%TO.P,J4,27,Pin_27*%
%TO.N,unconnected-(J4-Pad27)*%
X238980001Y-89230001D03*
%TO.P,J4,28,Pin_28*%
%TO.N,unconnected-(J4-Pad28)*%
X244020001Y-89230001D03*
%TO.P,J4,29,Pin_29*%
%TO.N,unconnected-(J4-Pad29)*%
X238980001Y-91770001D03*
%TO.P,J4,30,Pin_30*%
%TO.N,unconnected-(J4-Pad30)*%
X244020001Y-91770001D03*
%TO.P,J4,31,Pin_31*%
%TO.N,unconnected-(J4-Pad31)*%
X238980001Y-94310001D03*
%TO.P,J4,32,Pin_32*%
%TO.N,unconnected-(J4-Pad32)*%
X244020001Y-94310001D03*
%TO.P,J4,33,Pin_33*%
%TO.N,unconnected-(J4-Pad33)*%
X238980001Y-96850001D03*
%TO.P,J4,34,Pin_34*%
%TO.N,unconnected-(J4-Pad34)*%
X244020001Y-96850001D03*
%TO.P,J4,35,Pin_35*%
%TO.N,unconnected-(J4-Pad35)*%
X238980001Y-99390001D03*
%TO.P,J4,36,Pin_36*%
%TO.N,unconnected-(J4-Pad36)*%
X244020001Y-99390001D03*
%TO.P,J4,37,Pin_37*%
%TO.N,unconnected-(J4-Pad37)*%
X238980001Y-101930001D03*
%TO.P,J4,38,Pin_38*%
%TO.N,unconnected-(J4-Pad38)*%
X244020001Y-101930001D03*
%TD*%
%TO.P,J1,1,Pin_1*%
%TO.N,unconnected-(J1-Pad1)*%
X101980000Y-56210000D03*
%TO.P,J1,2,Pin_2*%
%TO.N,unconnected-(J1-Pad2)*%
X107020000Y-56210000D03*
%TO.P,J1,3,Pin_3*%
%TO.N,unconnected-(J1-Pad3)*%
X101980000Y-58750000D03*
%TO.P,J1,4,Pin_4*%
%TO.N,unconnected-(J1-Pad4)*%
X107020000Y-58750000D03*
%TO.P,J1,5,Pin_5*%
%TO.N,unconnected-(J1-Pad5)*%
X101980000Y-61290000D03*
%TO.P,J1,6,Pin_6*%
%TO.N,unconnected-(J1-Pad6)*%
X107020000Y-61290000D03*
%TO.P,J1,7,Pin_7*%
%TO.N,unconnected-(J1-Pad7)*%
X101980000Y-63830000D03*
%TO.P,J1,8,Pin_8*%
%TO.N,GND*%
X107020000Y-63830000D03*
%TO.P,J1,9,Pin_9*%
%TO.N,unconnected-(J1-Pad9)*%
X101980000Y-66370000D03*
%TO.P,J1,10,Pin_10*%
%TO.N,unconnected-(J1-Pad10)*%
X107020000Y-66370000D03*
%TO.P,J1,11,Pin_11*%
%TO.N,unconnected-(J1-Pad11)*%
X101980000Y-68910000D03*
%TO.P,J1,12,Pin_12*%
%TO.N,unconnected-(J1-Pad12)*%
X107020000Y-68910000D03*
%TO.P,J1,13,Pin_13*%
%TO.N,unconnected-(J1-Pad13)*%
X101980000Y-71450000D03*
%TO.P,J1,14,Pin_14*%
%TO.N,unconnected-(J1-Pad14)*%
X107020000Y-71450000D03*
%TO.P,J1,15,Pin_15*%
%TO.N,unconnected-(J1-Pad15)*%
X101980000Y-73990000D03*
%TO.P,J1,16,Pin_16*%
%TO.N,+3V3*%
X107020000Y-73990000D03*
%TO.P,J1,17,Pin_17*%
%TO.N,unconnected-(J1-Pad17)*%
X101980000Y-76530000D03*
%TO.P,J1,18,Pin_18*%
%TO.N,unconnected-(J1-Pad18)*%
X107020000Y-76530000D03*
%TO.P,J1,19,Pin_19*%
%TO.N,GND*%
X101980000Y-79070000D03*
%TO.P,J1,20,Pin_20*%
X107020000Y-79070000D03*
%TO.P,J1,21,Pin_21*%
%TO.N,unconnected-(J1-Pad21)*%
X101980000Y-81610000D03*
%TO.P,J1,22,Pin_22*%
%TO.N,GND*%
X107020000Y-81610000D03*
%TO.P,J1,23,Pin_23*%
%TO.N,unconnected-(J1-Pad23)*%
X101980000Y-84150000D03*
%TO.P,J1,24,Pin_24*%
%TO.N,unconnected-(J1-Pad24)*%
X107020000Y-84150000D03*
%TO.P,J1,25,Pin_25*%
%TO.N,unconnected-(J1-Pad25)*%
X101980000Y-86690000D03*
%TO.P,J1,26,Pin_26*%
%TO.N,unconnected-(J1-Pad26)*%
X107020000Y-86690000D03*
%TO.P,J1,27,Pin_27*%
%TO.N,unconnected-(J1-Pad27)*%
X101980000Y-89230000D03*
%TO.P,J1,28,Pin_28*%
%TO.N,unconnected-(J1-Pad28)*%
X107020000Y-89230000D03*
%TO.P,J1,29,Pin_29*%
%TO.N,unconnected-(J1-Pad29)*%
X101980000Y-91770000D03*
%TO.P,J1,30,Pin_30*%
%TO.N,unconnected-(J1-Pad30)*%
X107020000Y-91770000D03*
%TO.P,J1,31,Pin_31*%
%TO.N,unconnected-(J1-Pad31)*%
X101980000Y-94310000D03*
%TO.P,J1,32,Pin_32*%
%TO.N,unconnected-(J1-Pad32)*%
X107020000Y-94310000D03*
%TO.P,J1,33,Pin_33*%
%TO.N,unconnected-(J1-Pad33)*%
X101980000Y-96850000D03*
%TO.P,J1,34,Pin_34*%
%TO.N,PB0_1*%
X107020000Y-96850000D03*
%TO.P,J1,35,Pin_35*%
%TO.N,unconnected-(J1-Pad35)*%
X101980000Y-99390000D03*
%TO.P,J1,36,Pin_36*%
%TO.N,unconnected-(J1-Pad36)*%
X107020000Y-99390000D03*
%TO.P,J1,37,Pin_37*%
%TO.N,unconnected-(J1-Pad37)*%
X101980000Y-101930000D03*
%TO.P,J1,38,Pin_38*%
%TO.N,unconnected-(J1-Pad38)*%
X107020000Y-101930000D03*
%TD*%
M02*
