%TF.GenerationSoftware,KiCad,Pcbnew,(6.0.8)*%
%TF.CreationDate,2022-11-08T10:52:10+01:00*%
%TF.ProjectId,TVZ_KTM_ApplicationBoard,54565a5f-4b54-44d5-9f41-70706c696361,rev?*%
%TF.SameCoordinates,Original*%
%TF.FileFunction,Legend,Top*%
%TF.FilePolarity,Positive*%
%FSLAX46Y46*%
G04 Gerber Fmt 4.6, Leading zero omitted, Abs format (unit mm)*
G04 Created by KiCad (PCBNEW (6.0.8)) date 2022-11-08 10:52:10*
%MOMM*%
%LPD*%
G01*
G04 APERTURE LIST*
G04 Aperture macros list*
%AMRoundRect*
0 Rectangle with rounded corners*
0 $1 Rounding radius*
0 $2 $3 $4 $5 $6 $7 $8 $9 X,Y pos of 4 corners*
0 Add a 4 corners polygon primitive as box body*
4,1,4,$2,$3,$4,$5,$6,$7,$8,$9,$2,$3,0*
0 Add four circle primitives for the rounded corners*
1,1,$1+$1,$2,$3*
1,1,$1+$1,$4,$5*
1,1,$1+$1,$6,$7*
1,1,$1+$1,$8,$9*
0 Add four rect primitives between the rounded corners*
20,1,$1+$1,$2,$3,$4,$5,0*
20,1,$1+$1,$4,$5,$6,$7,0*
20,1,$1+$1,$6,$7,$8,$9,0*
20,1,$1+$1,$8,$9,$2,$3,0*%
G04 Aperture macros list end*
%ADD10C,0.120000*%
%ADD11RoundRect,0.150000X-0.725000X-0.150000X0.725000X-0.150000X0.725000X0.150000X-0.725000X0.150000X0*%
%ADD12C,1.440000*%
%ADD13RoundRect,0.200000X-0.200000X-0.275000X0.200000X-0.275000X0.200000X0.275000X-0.200000X0.275000X0*%
%ADD14R,1.700000X1.700000*%
%ADD15O,1.700000X1.700000*%
%ADD16R,1.600000X1.600000*%
%ADD17O,1.600000X1.600000*%
%ADD18C,2.100000*%
%ADD19C,1.524000*%
%ADD20R,1.800000X1.800000*%
%ADD21C,1.800000*%
%ADD22RoundRect,0.225000X-0.225000X-0.250000X0.225000X-0.250000X0.225000X0.250000X-0.225000X0.250000X0*%
G04 APERTURE END LIST*
D10*
%TO.C,U1*%
X123110000Y-87280000D02*
X125060000Y-87280000D01*
X123110000Y-92400000D02*
X121160000Y-92400000D01*
X123110000Y-92400000D02*
X125060000Y-92400000D01*
X123110000Y-87280000D02*
X119660000Y-87280000D01*
%TO.C,RV1*%
X125190000Y-76185000D02*
X125190000Y-86010000D01*
X115390000Y-86010000D02*
X125190000Y-86010000D01*
X115390000Y-76185000D02*
X125190000Y-76185000D01*
X115390000Y-76185000D02*
X115390000Y-86010000D01*
%TO.C,R19*%
X137762742Y-89522500D02*
X138237258Y-89522500D01*
X137762742Y-88477500D02*
X138237258Y-88477500D01*
%TO.C,R18*%
X133112742Y-94542500D02*
X133587258Y-94542500D01*
X133112742Y-93497500D02*
X133587258Y-93497500D01*
%TO.C,R17*%
X145472742Y-82322500D02*
X145947258Y-82322500D01*
X145472742Y-81277500D02*
X145947258Y-81277500D01*
%TO.C,R16*%
X133752742Y-89522500D02*
X134227258Y-89522500D01*
X133752742Y-88477500D02*
X134227258Y-88477500D01*
%TO.C,R15*%
X129102742Y-94202500D02*
X129577258Y-94202500D01*
X129102742Y-93157500D02*
X129577258Y-93157500D01*
%TO.C,R14*%
X133752742Y-92032500D02*
X134227258Y-92032500D01*
X133752742Y-90987500D02*
X134227258Y-90987500D01*
%TO.C,R13*%
X145472742Y-77302500D02*
X145947258Y-77302500D01*
X145472742Y-76257500D02*
X145947258Y-76257500D01*
%TO.C,R12*%
X137762742Y-87012500D02*
X138237258Y-87012500D01*
X137762742Y-85967500D02*
X138237258Y-85967500D01*
%TO.C,R11*%
X149482742Y-77302500D02*
X149957258Y-77302500D01*
X149482742Y-76257500D02*
X149957258Y-76257500D01*
%TO.C,R10*%
X141462742Y-77302500D02*
X141937258Y-77302500D01*
X141462742Y-76257500D02*
X141937258Y-76257500D01*
%TO.C,R9*%
X136812742Y-84502500D02*
X137287258Y-84502500D01*
X136812742Y-83457500D02*
X137287258Y-83457500D01*
%TO.C,R8*%
X133752742Y-87012500D02*
X134227258Y-87012500D01*
X133752742Y-85967500D02*
X134227258Y-85967500D01*
%TO.C,R7*%
X141462742Y-79812500D02*
X141937258Y-79812500D01*
X141462742Y-78767500D02*
X141937258Y-78767500D01*
%TO.C,R6*%
X141772742Y-84832500D02*
X142247258Y-84832500D01*
X141772742Y-83787500D02*
X142247258Y-83787500D01*
%TO.C,R5*%
X149482742Y-79812500D02*
X149957258Y-79812500D01*
X149482742Y-78767500D02*
X149957258Y-78767500D01*
%TO.C,R4*%
X120652742Y-94842500D02*
X121127258Y-94842500D01*
X120652742Y-93797500D02*
X121127258Y-93797500D01*
%TO.C,R3*%
X141462742Y-82322500D02*
X141937258Y-82322500D01*
X141462742Y-81277500D02*
X141937258Y-81277500D01*
%TO.C,R2*%
X145472742Y-79812500D02*
X145947258Y-79812500D01*
X145472742Y-78767500D02*
X145947258Y-78767500D01*
%TO.C,R1*%
X124662742Y-94842500D02*
X125137258Y-94842500D01*
X124662742Y-93797500D02*
X125137258Y-93797500D01*
%TO.C,JP5*%
X126740000Y-84260000D02*
X129400000Y-84260000D01*
X126740000Y-79120000D02*
X126740000Y-84260000D01*
X126740000Y-77850000D02*
X126740000Y-76520000D01*
X129400000Y-79120000D02*
X129400000Y-84260000D01*
X126740000Y-76520000D02*
X128070000Y-76520000D01*
X126740000Y-79120000D02*
X129400000Y-79120000D01*
%TO.C,JP4*%
X131390000Y-84260000D02*
X134050000Y-84260000D01*
X131390000Y-79120000D02*
X131390000Y-84260000D01*
X131390000Y-77850000D02*
X131390000Y-76520000D01*
X134050000Y-79120000D02*
X134050000Y-84260000D01*
X131390000Y-76520000D02*
X132720000Y-76520000D01*
X131390000Y-79120000D02*
X134050000Y-79120000D01*
%TO.C,JP3*%
X128330000Y-87550000D02*
X128330000Y-86220000D01*
X128330000Y-91420000D02*
X130990000Y-91420000D01*
X128330000Y-88820000D02*
X128330000Y-91420000D01*
X128330000Y-88820000D02*
X130990000Y-88820000D01*
X128330000Y-86220000D02*
X129660000Y-86220000D01*
X130990000Y-88820000D02*
X130990000Y-91420000D01*
%TO.C,JP2*%
X136040000Y-77850000D02*
X136040000Y-76520000D01*
X136040000Y-81720000D02*
X138700000Y-81720000D01*
X136040000Y-79120000D02*
X136040000Y-81720000D01*
X136040000Y-79120000D02*
X138700000Y-79120000D01*
X136040000Y-76520000D02*
X137370000Y-76520000D01*
X138700000Y-79120000D02*
X138700000Y-81720000D01*
%TO.C,JP1*%
X115230000Y-95350000D02*
X117890000Y-95350000D01*
X115230000Y-90210000D02*
X115230000Y-95350000D01*
X115230000Y-88940000D02*
X115230000Y-87610000D01*
X117890000Y-90210000D02*
X117890000Y-95350000D01*
X115230000Y-87610000D02*
X116560000Y-87610000D01*
X115230000Y-90210000D02*
X117890000Y-90210000D01*
%TO.C,U3*%
X208285000Y-87685000D02*
X206635000Y-87685000D01*
X202985000Y-87685000D02*
X202985000Y-97965000D01*
X208285000Y-97965000D02*
X208285000Y-87685000D01*
X204635000Y-87685000D02*
X202985000Y-87685000D01*
X202985000Y-97965000D02*
X208285000Y-97965000D01*
X204635000Y-87685000D02*
G75*
G03*
X206635000Y-87685000I1000000J0D01*
G01*
%TO.C,SW4*%
X224500000Y-70500000D02*
X224500000Y-79500000D01*
X220500000Y-79500000D02*
X219500000Y-79500000D01*
X223500000Y-70500000D02*
X224500000Y-70500000D01*
X219500000Y-70500000D02*
X220500000Y-70500000D01*
X219500000Y-79500000D02*
X219500000Y-70500000D01*
X224500000Y-79500000D02*
X223500000Y-79500000D01*
%TO.C,SW3*%
X208500000Y-70400000D02*
X208500000Y-79400000D01*
X204500000Y-79400000D02*
X203500000Y-79400000D01*
X207500000Y-70400000D02*
X208500000Y-70400000D01*
X203500000Y-70400000D02*
X204500000Y-70400000D01*
X203500000Y-79400000D02*
X203500000Y-70400000D01*
X208500000Y-79400000D02*
X207500000Y-79400000D01*
%TO.C,SW2*%
X216500000Y-70500000D02*
X216500000Y-79500000D01*
X212500000Y-79500000D02*
X211500000Y-79500000D01*
X215500000Y-70500000D02*
X216500000Y-70500000D01*
X211500000Y-70500000D02*
X212500000Y-70500000D01*
X211500000Y-79500000D02*
X211500000Y-70500000D01*
X216500000Y-79500000D02*
X215500000Y-79500000D01*
%TO.C,SW1*%
X200500000Y-70500000D02*
X200500000Y-79500000D01*
X196500000Y-79500000D02*
X195500000Y-79500000D01*
X199500000Y-70500000D02*
X200500000Y-70500000D01*
X195500000Y-70500000D02*
X196500000Y-70500000D01*
X195500000Y-79500000D02*
X195500000Y-70500000D01*
X200500000Y-79500000D02*
X199500000Y-79500000D01*
%TO.C,D12*%
X142710000Y-68455000D02*
X142710000Y-71545000D01*
X142710000Y-71544830D02*
G75*
G03*
X148260000Y-69999538I2560000J1544830D01*
G01*
X148260000Y-70000462D02*
G75*
G03*
X142710000Y-68455170I-2990000J462D01*
G01*
X147770000Y-70000000D02*
G75*
G03*
X147770000Y-70000000I-2500000J0D01*
G01*
%TO.C,D11*%
X135710000Y-68455000D02*
X135710000Y-71545000D01*
X135710000Y-71544830D02*
G75*
G03*
X141260000Y-69999538I2560000J1544830D01*
G01*
X141260000Y-70000462D02*
G75*
G03*
X135710000Y-68455170I-2990000J462D01*
G01*
X140770000Y-70000000D02*
G75*
G03*
X140770000Y-70000000I-2500000J0D01*
G01*
%TO.C,D10*%
X128710000Y-68455000D02*
X128710000Y-71545000D01*
X128710000Y-71544830D02*
G75*
G03*
X134260000Y-69999538I2560000J1544830D01*
G01*
X134260000Y-70000462D02*
G75*
G03*
X128710000Y-68455170I-2990000J462D01*
G01*
X133770000Y-70000000D02*
G75*
G03*
X133770000Y-70000000I-2500000J0D01*
G01*
%TO.C,D9*%
X121710000Y-68455000D02*
X121710000Y-71545000D01*
X121710000Y-71544830D02*
G75*
G03*
X127260000Y-69999538I2560000J1544830D01*
G01*
X127260000Y-70000462D02*
G75*
G03*
X121710000Y-68455170I-2990000J462D01*
G01*
X126770000Y-70000000D02*
G75*
G03*
X126770000Y-70000000I-2500000J0D01*
G01*
%TO.C,C4*%
X214849420Y-91510000D02*
X215130580Y-91510000D01*
X214849420Y-90490000D02*
X215130580Y-90490000D01*
%TO.C,C3*%
X218859420Y-91510000D02*
X219140580Y-91510000D01*
X218859420Y-90490000D02*
X219140580Y-90490000D01*
%TO.C,C2*%
X214849420Y-94020000D02*
X215130580Y-94020000D01*
X214849420Y-93000000D02*
X215130580Y-93000000D01*
%TO.C,D8*%
X142710000Y-60455000D02*
X142710000Y-63545000D01*
X142710000Y-63544830D02*
G75*
G03*
X148260000Y-61999538I2560000J1544830D01*
G01*
X148260000Y-62000462D02*
G75*
G03*
X142710000Y-60455170I-2990000J462D01*
G01*
X147770000Y-62000000D02*
G75*
G03*
X147770000Y-62000000I-2500000J0D01*
G01*
%TO.C,D7*%
X135710000Y-60455000D02*
X135710000Y-63545000D01*
X135710000Y-63544830D02*
G75*
G03*
X141260000Y-61999538I2560000J1544830D01*
G01*
X141260000Y-62000462D02*
G75*
G03*
X135710000Y-60455170I-2990000J462D01*
G01*
X140770000Y-62000000D02*
G75*
G03*
X140770000Y-62000000I-2500000J0D01*
G01*
%TO.C,D6*%
X128710000Y-60455000D02*
X128710000Y-63545000D01*
X128710000Y-63544830D02*
G75*
G03*
X134260000Y-61999538I2560000J1544830D01*
G01*
X134260000Y-62000462D02*
G75*
G03*
X128710000Y-60455170I-2990000J462D01*
G01*
X133770000Y-62000000D02*
G75*
G03*
X133770000Y-62000000I-2500000J0D01*
G01*
%TO.C,D5*%
X121710000Y-60455000D02*
X121710000Y-63545000D01*
X121710000Y-63544830D02*
G75*
G03*
X127260000Y-61999538I2560000J1544830D01*
G01*
X127260000Y-62000462D02*
G75*
G03*
X121710000Y-60455170I-2990000J462D01*
G01*
X126770000Y-62000000D02*
G75*
G03*
X126770000Y-62000000I-2500000J0D01*
G01*
%TO.C,D4*%
X218710000Y-60455000D02*
X218710000Y-63545000D01*
X218710000Y-63544830D02*
G75*
G03*
X224260000Y-61999538I2560000J1544830D01*
G01*
X224260000Y-62000462D02*
G75*
G03*
X218710000Y-60455170I-2990000J462D01*
G01*
X223770000Y-62000000D02*
G75*
G03*
X223770000Y-62000000I-2500000J0D01*
G01*
%TO.C,D3*%
X211710000Y-60455000D02*
X211710000Y-63545000D01*
X211710000Y-63544830D02*
G75*
G03*
X217260000Y-61999538I2560000J1544830D01*
G01*
X217260000Y-62000462D02*
G75*
G03*
X211710000Y-60455170I-2990000J462D01*
G01*
X216770000Y-62000000D02*
G75*
G03*
X216770000Y-62000000I-2500000J0D01*
G01*
%TO.C,D2*%
X204710000Y-60455000D02*
X204710000Y-63545000D01*
X204710000Y-63544830D02*
G75*
G03*
X210260000Y-61999538I2560000J1544830D01*
G01*
X210260000Y-62000462D02*
G75*
G03*
X204710000Y-60455170I-2990000J462D01*
G01*
X209770000Y-62000000D02*
G75*
G03*
X209770000Y-62000000I-2500000J0D01*
G01*
%TO.C,D1*%
X197710000Y-60455000D02*
X197710000Y-63545000D01*
X197710000Y-63544830D02*
G75*
G03*
X203260000Y-61999538I2560000J1544830D01*
G01*
X203260000Y-62000462D02*
G75*
G03*
X197710000Y-60455170I-2990000J462D01*
G01*
X202770000Y-62000000D02*
G75*
G03*
X202770000Y-62000000I-2500000J0D01*
G01*
%TO.C,C1*%
X116219420Y-102050000D02*
X116500580Y-102050000D01*
X116219420Y-101030000D02*
X116500580Y-101030000D01*
%TO.C,U2*%
X147160000Y-100950000D02*
X152460000Y-100950000D01*
X152460000Y-100950000D02*
X152460000Y-90670000D01*
X152460000Y-90670000D02*
X150810000Y-90670000D01*
X147160000Y-90670000D02*
X147160000Y-100950000D01*
X148810000Y-90670000D02*
X147160000Y-90670000D01*
X148810000Y-90670000D02*
G75*
G03*
X150810000Y-90670000I1000000J0D01*
G01*
%TD*%
%LPC*%
D11*
%TO.C,U1*%
X120535000Y-87935000D03*
X120535000Y-89205000D03*
X120535000Y-90475000D03*
X120535000Y-91745000D03*
X125685000Y-91745000D03*
X125685000Y-90475000D03*
X125685000Y-89205000D03*
X125685000Y-87935000D03*
%TD*%
D12*
%TO.C,RV1*%
X119790000Y-83610000D03*
X122330000Y-81070000D03*
X119790000Y-78530000D03*
%TD*%
D13*
%TO.C,R19*%
X137175000Y-89000000D03*
X138825000Y-89000000D03*
%TD*%
%TO.C,R18*%
X132525000Y-94020000D03*
X134175000Y-94020000D03*
%TD*%
%TO.C,R17*%
X144885000Y-81800000D03*
X146535000Y-81800000D03*
%TD*%
%TO.C,R16*%
X133165000Y-89000000D03*
X134815000Y-89000000D03*
%TD*%
%TO.C,R15*%
X128515000Y-93680000D03*
X130165000Y-93680000D03*
%TD*%
%TO.C,R14*%
X133165000Y-91510000D03*
X134815000Y-91510000D03*
%TD*%
%TO.C,R13*%
X144885000Y-76780000D03*
X146535000Y-76780000D03*
%TD*%
%TO.C,R12*%
X137175000Y-86490000D03*
X138825000Y-86490000D03*
%TD*%
%TO.C,R11*%
X148895000Y-76780000D03*
X150545000Y-76780000D03*
%TD*%
%TO.C,R10*%
X140875000Y-76780000D03*
X142525000Y-76780000D03*
%TD*%
%TO.C,R9*%
X136225000Y-83980000D03*
X137875000Y-83980000D03*
%TD*%
%TO.C,R8*%
X133165000Y-86490000D03*
X134815000Y-86490000D03*
%TD*%
%TO.C,R7*%
X140875000Y-79290000D03*
X142525000Y-79290000D03*
%TD*%
%TO.C,R6*%
X141185000Y-84310000D03*
X142835000Y-84310000D03*
%TD*%
%TO.C,R5*%
X148895000Y-79290000D03*
X150545000Y-79290000D03*
%TD*%
%TO.C,R4*%
X120065000Y-94320000D03*
X121715000Y-94320000D03*
%TD*%
%TO.C,R3*%
X140875000Y-81800000D03*
X142525000Y-81800000D03*
%TD*%
%TO.C,R2*%
X144885000Y-79290000D03*
X146535000Y-79290000D03*
%TD*%
%TO.C,R1*%
X124075000Y-94320000D03*
X125725000Y-94320000D03*
%TD*%
D14*
%TO.C,JP5*%
X128070000Y-77850000D03*
D15*
X128070000Y-80390000D03*
X128070000Y-82930000D03*
%TD*%
D14*
%TO.C,JP4*%
X132720000Y-77850000D03*
D15*
X132720000Y-80390000D03*
X132720000Y-82930000D03*
%TD*%
D14*
%TO.C,JP3*%
X129660000Y-87550000D03*
D15*
X129660000Y-90090000D03*
%TD*%
D14*
%TO.C,JP2*%
X137370000Y-77850000D03*
D15*
X137370000Y-80390000D03*
%TD*%
D14*
%TO.C,JP1*%
X116560000Y-88940000D03*
D15*
X116560000Y-91480000D03*
X116560000Y-94020000D03*
%TD*%
D16*
%TO.C,U3*%
X201825000Y-89015000D03*
D17*
X201825000Y-91555000D03*
X201825000Y-94095000D03*
X201825000Y-96635000D03*
X209445000Y-96635000D03*
X209445000Y-94095000D03*
X209445000Y-91555000D03*
X209445000Y-89015000D03*
%TD*%
D18*
%TO.C,SW4*%
X222000000Y-79100000D03*
X222000000Y-70900000D03*
D19*
X222000000Y-73000000D03*
X222000000Y-75000000D03*
X222000000Y-77000000D03*
%TD*%
D18*
%TO.C,SW3*%
X206000000Y-79000000D03*
X206000000Y-70800000D03*
D19*
X206000000Y-72900000D03*
X206000000Y-74900000D03*
X206000000Y-76900000D03*
%TD*%
D18*
%TO.C,SW2*%
X214000000Y-79100000D03*
X214000000Y-70900000D03*
D19*
X214000000Y-73000000D03*
X214000000Y-75000000D03*
X214000000Y-77000000D03*
%TD*%
D18*
%TO.C,SW1*%
X198000000Y-79100000D03*
X198000000Y-70900000D03*
D19*
X198000000Y-73000000D03*
X198000000Y-75000000D03*
X198000000Y-77000000D03*
%TD*%
D20*
%TO.C,D12*%
X144000000Y-70000000D03*
D21*
X146540000Y-70000000D03*
%TD*%
D20*
%TO.C,D11*%
X137000000Y-70000000D03*
D21*
X139540000Y-70000000D03*
%TD*%
D20*
%TO.C,D10*%
X130000000Y-70000000D03*
D21*
X132540000Y-70000000D03*
%TD*%
D20*
%TO.C,D9*%
X123000000Y-70000000D03*
D21*
X125540000Y-70000000D03*
%TD*%
D22*
%TO.C,C4*%
X214215000Y-91000000D03*
X215765000Y-91000000D03*
%TD*%
%TO.C,C3*%
X218225000Y-91000000D03*
X219775000Y-91000000D03*
%TD*%
%TO.C,C2*%
X214215000Y-93510000D03*
X215765000Y-93510000D03*
%TD*%
D20*
%TO.C,D8*%
X144000000Y-62000000D03*
D21*
X146540000Y-62000000D03*
%TD*%
D20*
%TO.C,D7*%
X137000000Y-62000000D03*
D21*
X139540000Y-62000000D03*
%TD*%
D20*
%TO.C,D6*%
X130000000Y-62000000D03*
D21*
X132540000Y-62000000D03*
%TD*%
D20*
%TO.C,D5*%
X123000000Y-62000000D03*
D21*
X125540000Y-62000000D03*
%TD*%
D20*
%TO.C,D4*%
X220000000Y-62000000D03*
D21*
X222540000Y-62000000D03*
%TD*%
D20*
%TO.C,D3*%
X213000000Y-62000000D03*
D21*
X215540000Y-62000000D03*
%TD*%
D20*
%TO.C,D2*%
X206000000Y-62000000D03*
D21*
X208540000Y-62000000D03*
%TD*%
D20*
%TO.C,D1*%
X199000000Y-62000000D03*
D21*
X201540000Y-62000000D03*
%TD*%
D22*
%TO.C,C1*%
X115585000Y-101540000D03*
X117135000Y-101540000D03*
%TD*%
D16*
%TO.C,U2*%
X146000000Y-92000000D03*
D17*
X146000000Y-94540000D03*
X146000000Y-97080000D03*
X146000000Y-99620000D03*
X153620000Y-99620000D03*
X153620000Y-97080000D03*
X153620000Y-94540000D03*
X153620000Y-92000000D03*
%TD*%
M02*
