%TF.GenerationSoftware,KiCad,Pcbnew,(6.0.8)*%
%TF.CreationDate,2022-11-08T10:52:10+01:00*%
%TF.ProjectId,TVZ_KTM_ApplicationBoard,54565a5f-4b54-44d5-9f41-70706c696361,rev?*%
%TF.SameCoordinates,Original*%
%TF.FileFunction,Soldermask,Top*%
%TF.FilePolarity,Negative*%
%FSLAX46Y46*%
G04 Gerber Fmt 4.6, Leading zero omitted, Abs format (unit mm)*
G04 Created by KiCad (PCBNEW (6.0.8)) date 2022-11-08 10:52:10*
%MOMM*%
%LPD*%
G01*
G04 APERTURE LIST*
G04 Aperture macros list*
%AMRoundRect*
0 Rectangle with rounded corners*
0 $1 Rounding radius*
0 $2 $3 $4 $5 $6 $7 $8 $9 X,Y pos of 4 corners*
0 Add a 4 corners polygon primitive as box body*
4,1,4,$2,$3,$4,$5,$6,$7,$8,$9,$2,$3,0*
0 Add four circle primitives for the rounded corners*
1,1,$1+$1,$2,$3*
1,1,$1+$1,$4,$5*
1,1,$1+$1,$6,$7*
1,1,$1+$1,$8,$9*
0 Add four rect primitives between the rounded corners*
20,1,$1+$1,$2,$3,$4,$5,0*
20,1,$1+$1,$4,$5,$6,$7,0*
20,1,$1+$1,$6,$7,$8,$9,0*
20,1,$1+$1,$8,$9,$2,$3,0*%
G04 Aperture macros list end*
%ADD10RoundRect,0.150000X-0.725000X-0.150000X0.725000X-0.150000X0.725000X0.150000X-0.725000X0.150000X0*%
%ADD11C,1.440000*%
%ADD12RoundRect,0.200000X-0.200000X-0.275000X0.200000X-0.275000X0.200000X0.275000X-0.200000X0.275000X0*%
%ADD13R,1.700000X1.700000*%
%ADD14O,1.700000X1.700000*%
%ADD15R,1.600000X1.600000*%
%ADD16O,1.600000X1.600000*%
%ADD17C,2.100000*%
%ADD18C,1.524000*%
%ADD19R,1.800000X1.800000*%
%ADD20C,1.800000*%
%ADD21RoundRect,0.225000X-0.225000X-0.250000X0.225000X-0.250000X0.225000X0.250000X-0.225000X0.250000X0*%
G04 APERTURE END LIST*
D10*
%TO.C,U1*%
X120535000Y-87935000D03*
X120535000Y-89205000D03*
X120535000Y-90475000D03*
X120535000Y-91745000D03*
X125685000Y-91745000D03*
X125685000Y-90475000D03*
X125685000Y-89205000D03*
X125685000Y-87935000D03*
%TD*%
D11*
%TO.C,RV1*%
X119790000Y-83610000D03*
X122330000Y-81070000D03*
X119790000Y-78530000D03*
%TD*%
D12*
%TO.C,R19*%
X137175000Y-89000000D03*
X138825000Y-89000000D03*
%TD*%
%TO.C,R18*%
X132525000Y-94020000D03*
X134175000Y-94020000D03*
%TD*%
%TO.C,R17*%
X144885000Y-81800000D03*
X146535000Y-81800000D03*
%TD*%
%TO.C,R16*%
X133165000Y-89000000D03*
X134815000Y-89000000D03*
%TD*%
%TO.C,R15*%
X128515000Y-93680000D03*
X130165000Y-93680000D03*
%TD*%
%TO.C,R14*%
X133165000Y-91510000D03*
X134815000Y-91510000D03*
%TD*%
%TO.C,R13*%
X144885000Y-76780000D03*
X146535000Y-76780000D03*
%TD*%
%TO.C,R12*%
X137175000Y-86490000D03*
X138825000Y-86490000D03*
%TD*%
%TO.C,R11*%
X148895000Y-76780000D03*
X150545000Y-76780000D03*
%TD*%
%TO.C,R10*%
X140875000Y-76780000D03*
X142525000Y-76780000D03*
%TD*%
%TO.C,R9*%
X136225000Y-83980000D03*
X137875000Y-83980000D03*
%TD*%
%TO.C,R8*%
X133165000Y-86490000D03*
X134815000Y-86490000D03*
%TD*%
%TO.C,R7*%
X140875000Y-79290000D03*
X142525000Y-79290000D03*
%TD*%
%TO.C,R6*%
X141185000Y-84310000D03*
X142835000Y-84310000D03*
%TD*%
%TO.C,R5*%
X148895000Y-79290000D03*
X150545000Y-79290000D03*
%TD*%
%TO.C,R4*%
X120065000Y-94320000D03*
X121715000Y-94320000D03*
%TD*%
%TO.C,R3*%
X140875000Y-81800000D03*
X142525000Y-81800000D03*
%TD*%
%TO.C,R2*%
X144885000Y-79290000D03*
X146535000Y-79290000D03*
%TD*%
%TO.C,R1*%
X124075000Y-94320000D03*
X125725000Y-94320000D03*
%TD*%
D13*
%TO.C,JP5*%
X128070000Y-77850000D03*
D14*
X128070000Y-80390000D03*
X128070000Y-82930000D03*
%TD*%
D13*
%TO.C,JP4*%
X132720000Y-77850000D03*
D14*
X132720000Y-80390000D03*
X132720000Y-82930000D03*
%TD*%
D13*
%TO.C,JP3*%
X129660000Y-87550000D03*
D14*
X129660000Y-90090000D03*
%TD*%
D13*
%TO.C,JP2*%
X137370000Y-77850000D03*
D14*
X137370000Y-80390000D03*
%TD*%
D13*
%TO.C,JP1*%
X116560000Y-88940000D03*
D14*
X116560000Y-91480000D03*
X116560000Y-94020000D03*
%TD*%
D15*
%TO.C,U3*%
X201825000Y-89015000D03*
D16*
X201825000Y-91555000D03*
X201825000Y-94095000D03*
X201825000Y-96635000D03*
X209445000Y-96635000D03*
X209445000Y-94095000D03*
X209445000Y-91555000D03*
X209445000Y-89015000D03*
%TD*%
D17*
%TO.C,SW4*%
X222000000Y-79100000D03*
X222000000Y-70900000D03*
D18*
X222000000Y-73000000D03*
X222000000Y-75000000D03*
X222000000Y-77000000D03*
%TD*%
D17*
%TO.C,SW3*%
X206000000Y-79000000D03*
X206000000Y-70800000D03*
D18*
X206000000Y-72900000D03*
X206000000Y-74900000D03*
X206000000Y-76900000D03*
%TD*%
D17*
%TO.C,SW2*%
X214000000Y-79100000D03*
X214000000Y-70900000D03*
D18*
X214000000Y-73000000D03*
X214000000Y-75000000D03*
X214000000Y-77000000D03*
%TD*%
D17*
%TO.C,SW1*%
X198000000Y-79100000D03*
X198000000Y-70900000D03*
D18*
X198000000Y-73000000D03*
X198000000Y-75000000D03*
X198000000Y-77000000D03*
%TD*%
D19*
%TO.C,D12*%
X144000000Y-70000000D03*
D20*
X146540000Y-70000000D03*
%TD*%
D19*
%TO.C,D11*%
X137000000Y-70000000D03*
D20*
X139540000Y-70000000D03*
%TD*%
D19*
%TO.C,D10*%
X130000000Y-70000000D03*
D20*
X132540000Y-70000000D03*
%TD*%
D19*
%TO.C,D9*%
X123000000Y-70000000D03*
D20*
X125540000Y-70000000D03*
%TD*%
D21*
%TO.C,C4*%
X214215000Y-91000000D03*
X215765000Y-91000000D03*
%TD*%
%TO.C,C3*%
X218225000Y-91000000D03*
X219775000Y-91000000D03*
%TD*%
%TO.C,C2*%
X214215000Y-93510000D03*
X215765000Y-93510000D03*
%TD*%
D19*
%TO.C,D8*%
X144000000Y-62000000D03*
D20*
X146540000Y-62000000D03*
%TD*%
D19*
%TO.C,D7*%
X137000000Y-62000000D03*
D20*
X139540000Y-62000000D03*
%TD*%
D19*
%TO.C,D6*%
X130000000Y-62000000D03*
D20*
X132540000Y-62000000D03*
%TD*%
D19*
%TO.C,D5*%
X123000000Y-62000000D03*
D20*
X125540000Y-62000000D03*
%TD*%
D19*
%TO.C,D4*%
X220000000Y-62000000D03*
D20*
X222540000Y-62000000D03*
%TD*%
D19*
%TO.C,D3*%
X213000000Y-62000000D03*
D20*
X215540000Y-62000000D03*
%TD*%
D19*
%TO.C,D2*%
X206000000Y-62000000D03*
D20*
X208540000Y-62000000D03*
%TD*%
D19*
%TO.C,D1*%
X199000000Y-62000000D03*
D20*
X201540000Y-62000000D03*
%TD*%
D21*
%TO.C,C1*%
X115585000Y-101540000D03*
X117135000Y-101540000D03*
%TD*%
D15*
%TO.C,U2*%
X146000000Y-92000000D03*
D16*
X146000000Y-94540000D03*
X146000000Y-97080000D03*
X146000000Y-99620000D03*
X153620000Y-99620000D03*
X153620000Y-97080000D03*
X153620000Y-94540000D03*
X153620000Y-92000000D03*
%TD*%
M02*
