%TF.GenerationSoftware,KiCad,Pcbnew,(6.0.8)*%
%TF.CreationDate,2022-11-08T10:52:10+01:00*%
%TF.ProjectId,TVZ_KTM_ApplicationBoard,54565a5f-4b54-44d5-9f41-70706c696361,rev?*%
%TF.SameCoordinates,Original*%
%TF.FileFunction,Paste,Bot*%
%TF.FilePolarity,Positive*%
%FSLAX46Y46*%
G04 Gerber Fmt 4.6, Leading zero omitted, Abs format (unit mm)*
G04 Created by KiCad (PCBNEW (6.0.8)) date 2022-11-08 10:52:10*
%MOMM*%
%LPD*%
G01*
G04 APERTURE LIST*
%ADD10R,3.000000X1.000000*%
G04 APERTURE END LIST*
D10*
%TO.C,J2*%
X162980000Y-56210000D03*
X168020000Y-56210000D03*
X162980000Y-58750000D03*
X168020000Y-58750000D03*
X162980000Y-61290000D03*
X168020000Y-61290000D03*
X162980000Y-63830000D03*
X168020000Y-63830000D03*
X162980000Y-66370000D03*
X168020000Y-66370000D03*
X162980000Y-68910000D03*
X168020000Y-68910000D03*
X162980000Y-71450000D03*
X168020000Y-71450000D03*
X162980000Y-73990000D03*
X168020000Y-73990000D03*
X162980000Y-76530000D03*
X168020000Y-76530000D03*
X162980000Y-79070000D03*
X168020000Y-79070000D03*
X162980000Y-81610000D03*
X168020000Y-81610000D03*
X162980000Y-84150000D03*
X168020000Y-84150000D03*
X162980000Y-86690000D03*
X168020000Y-86690000D03*
X162980000Y-89230000D03*
X168020000Y-89230000D03*
X162980000Y-91770000D03*
X168020000Y-91770000D03*
X162980000Y-94310000D03*
X168020000Y-94310000D03*
X162980000Y-96850000D03*
X168020000Y-96850000D03*
X162980000Y-99390000D03*
X168020000Y-99390000D03*
X162980000Y-101930000D03*
X168020000Y-101930000D03*
%TD*%
%TO.C,J3*%
X177980001Y-56210001D03*
X183020001Y-56210001D03*
X177980001Y-58750001D03*
X183020001Y-58750001D03*
X177980001Y-61290001D03*
X183020001Y-61290001D03*
X177980001Y-63830001D03*
X183020001Y-63830001D03*
X177980001Y-66370001D03*
X183020001Y-66370001D03*
X177980001Y-68910001D03*
X183020001Y-68910001D03*
X177980001Y-71450001D03*
X183020001Y-71450001D03*
X177980001Y-73990001D03*
X183020001Y-73990001D03*
X177980001Y-76530001D03*
X183020001Y-76530001D03*
X177980001Y-79070001D03*
X183020001Y-79070001D03*
X177980001Y-81610001D03*
X183020001Y-81610001D03*
X177980001Y-84150001D03*
X183020001Y-84150001D03*
X177980001Y-86690001D03*
X183020001Y-86690001D03*
X177980001Y-89230001D03*
X183020001Y-89230001D03*
X177980001Y-91770001D03*
X183020001Y-91770001D03*
X177980001Y-94310001D03*
X183020001Y-94310001D03*
X177980001Y-96850001D03*
X183020001Y-96850001D03*
X177980001Y-99390001D03*
X183020001Y-99390001D03*
X177980001Y-101930001D03*
X183020001Y-101930001D03*
%TD*%
%TO.C,J4*%
X238980001Y-56210001D03*
X244020001Y-56210001D03*
X238980001Y-58750001D03*
X244020001Y-58750001D03*
X238980001Y-61290001D03*
X244020001Y-61290001D03*
X238980001Y-63830001D03*
X244020001Y-63830001D03*
X238980001Y-66370001D03*
X244020001Y-66370001D03*
X238980001Y-68910001D03*
X244020001Y-68910001D03*
X238980001Y-71450001D03*
X244020001Y-71450001D03*
X238980001Y-73990001D03*
X244020001Y-73990001D03*
X238980001Y-76530001D03*
X244020001Y-76530001D03*
X238980001Y-79070001D03*
X244020001Y-79070001D03*
X238980001Y-81610001D03*
X244020001Y-81610001D03*
X238980001Y-84150001D03*
X244020001Y-84150001D03*
X238980001Y-86690001D03*
X244020001Y-86690001D03*
X238980001Y-89230001D03*
X244020001Y-89230001D03*
X238980001Y-91770001D03*
X244020001Y-91770001D03*
X238980001Y-94310001D03*
X244020001Y-94310001D03*
X238980001Y-96850001D03*
X244020001Y-96850001D03*
X238980001Y-99390001D03*
X244020001Y-99390001D03*
X238980001Y-101930001D03*
X244020001Y-101930001D03*
%TD*%
%TO.C,J1*%
X101980000Y-56210000D03*
X107020000Y-56210000D03*
X101980000Y-58750000D03*
X107020000Y-58750000D03*
X101980000Y-61290000D03*
X107020000Y-61290000D03*
X101980000Y-63830000D03*
X107020000Y-63830000D03*
X101980000Y-66370000D03*
X107020000Y-66370000D03*
X101980000Y-68910000D03*
X107020000Y-68910000D03*
X101980000Y-71450000D03*
X107020000Y-71450000D03*
X101980000Y-73990000D03*
X107020000Y-73990000D03*
X101980000Y-76530000D03*
X107020000Y-76530000D03*
X101980000Y-79070000D03*
X107020000Y-79070000D03*
X101980000Y-81610000D03*
X107020000Y-81610000D03*
X101980000Y-84150000D03*
X107020000Y-84150000D03*
X101980000Y-86690000D03*
X107020000Y-86690000D03*
X101980000Y-89230000D03*
X107020000Y-89230000D03*
X101980000Y-91770000D03*
X107020000Y-91770000D03*
X101980000Y-94310000D03*
X107020000Y-94310000D03*
X101980000Y-96850000D03*
X107020000Y-96850000D03*
X101980000Y-99390000D03*
X107020000Y-99390000D03*
X101980000Y-101930000D03*
X107020000Y-101930000D03*
%TD*%
M02*
