%TF.GenerationSoftware,KiCad,Pcbnew,(6.0.8)*%
%TF.CreationDate,2022-11-08T10:52:10+01:00*%
%TF.ProjectId,TVZ_KTM_ApplicationBoard,54565a5f-4b54-44d5-9f41-70706c696361,rev?*%
%TF.SameCoordinates,Original*%
%TF.FileFunction,Copper,L1,Top*%
%TF.FilePolarity,Positive*%
%FSLAX46Y46*%
G04 Gerber Fmt 4.6, Leading zero omitted, Abs format (unit mm)*
G04 Created by KiCad (PCBNEW (6.0.8)) date 2022-11-08 10:52:10*
%MOMM*%
%LPD*%
G01*
G04 APERTURE LIST*
G04 Aperture macros list*
%AMRoundRect*
0 Rectangle with rounded corners*
0 $1 Rounding radius*
0 $2 $3 $4 $5 $6 $7 $8 $9 X,Y pos of 4 corners*
0 Add a 4 corners polygon primitive as box body*
4,1,4,$2,$3,$4,$5,$6,$7,$8,$9,$2,$3,0*
0 Add four circle primitives for the rounded corners*
1,1,$1+$1,$2,$3*
1,1,$1+$1,$4,$5*
1,1,$1+$1,$6,$7*
1,1,$1+$1,$8,$9*
0 Add four rect primitives between the rounded corners*
20,1,$1+$1,$2,$3,$4,$5,0*
20,1,$1+$1,$4,$5,$6,$7,0*
20,1,$1+$1,$6,$7,$8,$9,0*
20,1,$1+$1,$8,$9,$2,$3,0*%
G04 Aperture macros list end*
%TA.AperFunction,SMDPad,CuDef*%
%ADD10RoundRect,0.150000X-0.725000X-0.150000X0.725000X-0.150000X0.725000X0.150000X-0.725000X0.150000X0*%
%TD*%
%TA.AperFunction,ComponentPad*%
%ADD11C,1.440000*%
%TD*%
%TA.AperFunction,SMDPad,CuDef*%
%ADD12RoundRect,0.200000X-0.200000X-0.275000X0.200000X-0.275000X0.200000X0.275000X-0.200000X0.275000X0*%
%TD*%
%TA.AperFunction,ComponentPad*%
%ADD13R,1.700000X1.700000*%
%TD*%
%TA.AperFunction,ComponentPad*%
%ADD14O,1.700000X1.700000*%
%TD*%
%TA.AperFunction,ComponentPad*%
%ADD15R,1.600000X1.600000*%
%TD*%
%TA.AperFunction,ComponentPad*%
%ADD16O,1.600000X1.600000*%
%TD*%
%TA.AperFunction,ComponentPad*%
%ADD17C,2.100000*%
%TD*%
%TA.AperFunction,ComponentPad*%
%ADD18C,1.524000*%
%TD*%
%TA.AperFunction,ComponentPad*%
%ADD19R,1.800000X1.800000*%
%TD*%
%TA.AperFunction,ComponentPad*%
%ADD20C,1.800000*%
%TD*%
%TA.AperFunction,SMDPad,CuDef*%
%ADD21RoundRect,0.225000X-0.225000X-0.250000X0.225000X-0.250000X0.225000X0.250000X-0.225000X0.250000X0*%
%TD*%
G04 APERTURE END LIST*
D10*
%TO.P,U1,1,SDA*%
%TO.N,/SDA*%
X120535000Y-87935000D03*
%TO.P,U1,2,SCL*%
%TO.N,/SCL*%
X120535000Y-89205000D03*
%TO.P,U1,3,O.S.*%
%TO.N,unconnected-(U1-Pad3)*%
X120535000Y-90475000D03*
%TO.P,U1,4,GND*%
%TO.N,GND*%
X120535000Y-91745000D03*
%TO.P,U1,5,A2*%
%TO.N,Net-(R5-Pad1)*%
X125685000Y-91745000D03*
%TO.P,U1,6,A1*%
%TO.N,Net-(R4-Pad1)*%
X125685000Y-90475000D03*
%TO.P,U1,7,A0*%
%TO.N,Net-(R3-Pad1)*%
X125685000Y-89205000D03*
%TO.P,U1,8,+Vs*%
%TO.N,+3V3*%
X125685000Y-87935000D03*
%TD*%
D11*
%TO.P,RV1,1,1*%
%TO.N,+3V3*%
X119790000Y-83610000D03*
%TO.P,RV1,2,2*%
%TO.N,POT*%
X122330000Y-81070000D03*
%TO.P,RV1,3,3*%
%TO.N,GND*%
X119790000Y-78530000D03*
%TD*%
D12*
%TO.P,R19,1*%
%TO.N,Net-(R18-Pad1)*%
X137175000Y-89000000D03*
%TO.P,R19,2*%
%TO.N,Net-(R18-Pad2)*%
X138825000Y-89000000D03*
%TD*%
%TO.P,R18,1*%
%TO.N,Net-(R18-Pad1)*%
X132525000Y-94020000D03*
%TO.P,R18,2*%
%TO.N,Net-(R18-Pad2)*%
X134175000Y-94020000D03*
%TD*%
%TO.P,R17,1*%
%TO.N,PC9_1*%
X144885000Y-81800000D03*
%TO.P,R17,2*%
%TO.N,Net-(D12-Pad2)*%
X146535000Y-81800000D03*
%TD*%
%TO.P,R16,1*%
%TO.N,PC8_1*%
X133165000Y-89000000D03*
%TO.P,R16,2*%
%TO.N,Net-(D11-Pad2)*%
X134815000Y-89000000D03*
%TD*%
%TO.P,R15,1*%
%TO.N,PC7_1*%
X128515000Y-93680000D03*
%TO.P,R15,2*%
%TO.N,Net-(D10-Pad2)*%
X130165000Y-93680000D03*
%TD*%
%TO.P,R14,1*%
%TO.N,PC6_1*%
X133165000Y-91510000D03*
%TO.P,R14,2*%
%TO.N,Net-(D9-Pad2)*%
X134815000Y-91510000D03*
%TD*%
%TO.P,R13,1*%
%TO.N,unconnected-(R13-Pad1)*%
X144885000Y-76780000D03*
%TO.P,R13,2*%
%TO.N,Net-(D8-Pad2)*%
X146535000Y-76780000D03*
%TD*%
%TO.P,R12,1*%
%TO.N,unconnected-(R12-Pad1)*%
X137175000Y-86490000D03*
%TO.P,R12,2*%
%TO.N,Net-(D7-Pad2)*%
X138825000Y-86490000D03*
%TD*%
%TO.P,R11,1*%
%TO.N,unconnected-(R11-Pad1)*%
X148895000Y-76780000D03*
%TO.P,R11,2*%
%TO.N,Net-(D6-Pad2)*%
X150545000Y-76780000D03*
%TD*%
%TO.P,R10,1*%
%TO.N,unconnected-(R10-Pad1)*%
X140875000Y-76780000D03*
%TO.P,R10,2*%
%TO.N,Net-(D5-Pad2)*%
X142525000Y-76780000D03*
%TD*%
%TO.P,R9,1*%
%TO.N,PC9_2*%
X136225000Y-83980000D03*
%TO.P,R9,2*%
%TO.N,Net-(D4-Pad2)*%
X137875000Y-83980000D03*
%TD*%
%TO.P,R8,1*%
%TO.N,PC8_2*%
X133165000Y-86490000D03*
%TO.P,R8,2*%
%TO.N,Net-(D3-Pad2)*%
X134815000Y-86490000D03*
%TD*%
%TO.P,R7,1*%
%TO.N,PC7_2*%
X140875000Y-79290000D03*
%TO.P,R7,2*%
%TO.N,Net-(D2-Pad2)*%
X142525000Y-79290000D03*
%TD*%
%TO.P,R6,1*%
%TO.N,PC6_2*%
X141185000Y-84310000D03*
%TO.P,R6,2*%
%TO.N,Net-(D1-Pad2)*%
X142835000Y-84310000D03*
%TD*%
%TO.P,R5,1*%
%TO.N,Net-(R5-Pad1)*%
X148895000Y-79290000D03*
%TO.P,R5,2*%
%TO.N,Net-(JP5-Pad2)*%
X150545000Y-79290000D03*
%TD*%
%TO.P,R4,1*%
%TO.N,Net-(R4-Pad1)*%
X120065000Y-94320000D03*
%TO.P,R4,2*%
%TO.N,Net-(JP4-Pad2)*%
X121715000Y-94320000D03*
%TD*%
%TO.P,R3,1*%
%TO.N,Net-(R3-Pad1)*%
X140875000Y-81800000D03*
%TO.P,R3,2*%
%TO.N,Net-(JP1-Pad2)*%
X142525000Y-81800000D03*
%TD*%
%TO.P,R2,1*%
%TO.N,Net-(JP3-Pad1)*%
X144885000Y-79290000D03*
%TO.P,R2,2*%
%TO.N,+3V3*%
X146535000Y-79290000D03*
%TD*%
%TO.P,R1,1*%
%TO.N,Net-(JP2-Pad1)*%
X124075000Y-94320000D03*
%TO.P,R1,2*%
%TO.N,+3V3*%
X125725000Y-94320000D03*
%TD*%
D13*
%TO.P,JP5,1,A*%
%TO.N,+3V3*%
X128070000Y-77850000D03*
D14*
%TO.P,JP5,2,C*%
%TO.N,Net-(JP5-Pad2)*%
X128070000Y-80390000D03*
%TO.P,JP5,3,B*%
%TO.N,GND*%
X128070000Y-82930000D03*
%TD*%
D13*
%TO.P,JP4,1,A*%
%TO.N,+3V3*%
X132720000Y-77850000D03*
D14*
%TO.P,JP4,2,C*%
%TO.N,Net-(JP4-Pad2)*%
X132720000Y-80390000D03*
%TO.P,JP4,3,B*%
%TO.N,GND*%
X132720000Y-82930000D03*
%TD*%
D13*
%TO.P,JP3,1,A*%
%TO.N,Net-(JP3-Pad1)*%
X129660000Y-87550000D03*
D14*
%TO.P,JP3,2,B*%
%TO.N,/SDA*%
X129660000Y-90090000D03*
%TD*%
D13*
%TO.P,JP2,1,A*%
%TO.N,Net-(JP2-Pad1)*%
X137370000Y-77850000D03*
D14*
%TO.P,JP2,2,B*%
%TO.N,/SCL*%
X137370000Y-80390000D03*
%TD*%
D13*
%TO.P,JP1,1,A*%
%TO.N,+3V3*%
X116560000Y-88940000D03*
D14*
%TO.P,JP1,2,C*%
%TO.N,Net-(JP1-Pad2)*%
X116560000Y-91480000D03*
%TO.P,JP1,3,B*%
%TO.N,GND*%
X116560000Y-94020000D03*
%TD*%
D15*
%TO.P,U3,1,TXD*%
%TO.N,TXD_2*%
X201825000Y-89015000D03*
D16*
%TO.P,U3,2,VSS*%
%TO.N,GND*%
X201825000Y-91555000D03*
%TO.P,U3,3,VDD*%
%TO.N,+3V3*%
X201825000Y-94095000D03*
%TO.P,U3,4,RXD*%
%TO.N,RXD_2*%
X201825000Y-96635000D03*
%TO.P,U3,5,Vref*%
%TO.N,unconnected-(U3-Pad5)*%
X209445000Y-96635000D03*
%TO.P,U3,6,CANL*%
%TO.N,Net-(R18-Pad2)*%
X209445000Y-94095000D03*
%TO.P,U3,7,CANH*%
%TO.N,Net-(R18-Pad1)*%
X209445000Y-91555000D03*
%TO.P,U3,8,Rs*%
%TO.N,GND*%
X209445000Y-89015000D03*
%TD*%
D17*
%TO.P,SW4,*%
%TO.N,*%
X222000000Y-79100000D03*
X222000000Y-70900000D03*
D18*
%TO.P,SW4,1,A*%
%TO.N,unconnected-(SW4-Pad1)*%
X222000000Y-73000000D03*
%TO.P,SW4,2,B*%
%TO.N,PB10_1*%
X222000000Y-75000000D03*
%TO.P,SW4,3,C*%
%TO.N,GND*%
X222000000Y-77000000D03*
%TD*%
D17*
%TO.P,SW3,*%
%TO.N,*%
X206000000Y-79000000D03*
X206000000Y-70800000D03*
D18*
%TO.P,SW3,1,A*%
%TO.N,unconnected-(SW3-Pad1)*%
X206000000Y-72900000D03*
%TO.P,SW3,2,B*%
%TO.N,PB1_1*%
X206000000Y-74900000D03*
%TO.P,SW3,3,C*%
%TO.N,GND*%
X206000000Y-76900000D03*
%TD*%
D17*
%TO.P,SW2,*%
%TO.N,*%
X214000000Y-79100000D03*
X214000000Y-70900000D03*
D18*
%TO.P,SW2,1,A*%
%TO.N,unconnected-(SW2-Pad1)*%
X214000000Y-73000000D03*
%TO.P,SW2,2,B*%
%TO.N,PB2_1*%
X214000000Y-75000000D03*
%TO.P,SW2,3,C*%
%TO.N,GND*%
X214000000Y-77000000D03*
%TD*%
D17*
%TO.P,SW1,*%
%TO.N,*%
X198000000Y-79100000D03*
X198000000Y-70900000D03*
D18*
%TO.P,SW1,1,A*%
%TO.N,unconnected-(SW1-Pad1)*%
X198000000Y-73000000D03*
%TO.P,SW1,2,B*%
%TO.N,PB0_1*%
X198000000Y-75000000D03*
%TO.P,SW1,3,C*%
%TO.N,GND*%
X198000000Y-77000000D03*
%TD*%
D19*
%TO.P,D12,1,K*%
%TO.N,GND*%
X144000000Y-70000000D03*
D20*
%TO.P,D12,2,A*%
%TO.N,Net-(D12-Pad2)*%
X146540000Y-70000000D03*
%TD*%
D19*
%TO.P,D11,1,K*%
%TO.N,GND*%
X137000000Y-70000000D03*
D20*
%TO.P,D11,2,A*%
%TO.N,Net-(D11-Pad2)*%
X139540000Y-70000000D03*
%TD*%
D19*
%TO.P,D10,1,K*%
%TO.N,GND*%
X130000000Y-70000000D03*
D20*
%TO.P,D10,2,A*%
%TO.N,Net-(D10-Pad2)*%
X132540000Y-70000000D03*
%TD*%
D19*
%TO.P,D9,1,K*%
%TO.N,GND*%
X123000000Y-70000000D03*
D20*
%TO.P,D9,2,A*%
%TO.N,Net-(D9-Pad2)*%
X125540000Y-70000000D03*
%TD*%
D21*
%TO.P,C4,1*%
%TO.N,POT*%
X214215000Y-91000000D03*
%TO.P,C4,2*%
%TO.N,GND*%
X215765000Y-91000000D03*
%TD*%
%TO.P,C3,1*%
%TO.N,+3V3*%
X218225000Y-91000000D03*
%TO.P,C3,2*%
%TO.N,GND*%
X219775000Y-91000000D03*
%TD*%
%TO.P,C2,1*%
%TO.N,+3V3*%
X214215000Y-93510000D03*
%TO.P,C2,2*%
%TO.N,GND*%
X215765000Y-93510000D03*
%TD*%
D19*
%TO.P,D8,1,K*%
%TO.N,GND*%
X144000000Y-62000000D03*
D20*
%TO.P,D8,2,A*%
%TO.N,Net-(D8-Pad2)*%
X146540000Y-62000000D03*
%TD*%
D19*
%TO.P,D7,1,K*%
%TO.N,GND*%
X137000000Y-62000000D03*
D20*
%TO.P,D7,2,A*%
%TO.N,Net-(D7-Pad2)*%
X139540000Y-62000000D03*
%TD*%
D19*
%TO.P,D6,1,K*%
%TO.N,GND*%
X130000000Y-62000000D03*
D20*
%TO.P,D6,2,A*%
%TO.N,Net-(D6-Pad2)*%
X132540000Y-62000000D03*
%TD*%
D19*
%TO.P,D5,1,K*%
%TO.N,GND*%
X123000000Y-62000000D03*
D20*
%TO.P,D5,2,A*%
%TO.N,Net-(D5-Pad2)*%
X125540000Y-62000000D03*
%TD*%
D19*
%TO.P,D4,1,K*%
%TO.N,GND*%
X220000000Y-62000000D03*
D20*
%TO.P,D4,2,A*%
%TO.N,Net-(D4-Pad2)*%
X222540000Y-62000000D03*
%TD*%
D19*
%TO.P,D3,1,K*%
%TO.N,GND*%
X213000000Y-62000000D03*
D20*
%TO.P,D3,2,A*%
%TO.N,Net-(D3-Pad2)*%
X215540000Y-62000000D03*
%TD*%
D19*
%TO.P,D2,1,K*%
%TO.N,GND*%
X206000000Y-62000000D03*
D20*
%TO.P,D2,2,A*%
%TO.N,Net-(D2-Pad2)*%
X208540000Y-62000000D03*
%TD*%
D19*
%TO.P,D1,1,K*%
%TO.N,GND*%
X199000000Y-62000000D03*
D20*
%TO.P,D1,2,A*%
%TO.N,Net-(D1-Pad2)*%
X201540000Y-62000000D03*
%TD*%
D21*
%TO.P,C1,1*%
%TO.N,+3V3*%
X115585000Y-101540000D03*
%TO.P,C1,2*%
%TO.N,GND*%
X117135000Y-101540000D03*
%TD*%
D15*
%TO.P,U2,1,TXD*%
%TO.N,TXD_1*%
X146000000Y-92000000D03*
D16*
%TO.P,U2,2,VSS*%
%TO.N,GND*%
X146000000Y-94540000D03*
%TO.P,U2,3,VDD*%
%TO.N,+3V3*%
X146000000Y-97080000D03*
%TO.P,U2,4,RXD*%
%TO.N,RXD_1*%
X146000000Y-99620000D03*
%TO.P,U2,5,Vref*%
%TO.N,unconnected-(U2-Pad5)*%
X153620000Y-99620000D03*
%TO.P,U2,6,CANL*%
%TO.N,Net-(R18-Pad2)*%
X153620000Y-97080000D03*
%TO.P,U2,7,CANH*%
%TO.N,Net-(R18-Pad1)*%
X153620000Y-94540000D03*
%TO.P,U2,8,Rs*%
%TO.N,GND*%
X153620000Y-92000000D03*
%TD*%
M02*
