%TF.GenerationSoftware,KiCad,Pcbnew,(6.0.8)*%
%TF.CreationDate,2022-11-08T10:52:10+01:00*%
%TF.ProjectId,TVZ_KTM_ApplicationBoard,54565a5f-4b54-44d5-9f41-70706c696361,rev?*%
%TF.SameCoordinates,Original*%
%TF.FileFunction,Paste,Top*%
%TF.FilePolarity,Positive*%
%FSLAX46Y46*%
G04 Gerber Fmt 4.6, Leading zero omitted, Abs format (unit mm)*
G04 Created by KiCad (PCBNEW (6.0.8)) date 2022-11-08 10:52:10*
%MOMM*%
%LPD*%
G01*
G04 APERTURE LIST*
G04 Aperture macros list*
%AMRoundRect*
0 Rectangle with rounded corners*
0 $1 Rounding radius*
0 $2 $3 $4 $5 $6 $7 $8 $9 X,Y pos of 4 corners*
0 Add a 4 corners polygon primitive as box body*
4,1,4,$2,$3,$4,$5,$6,$7,$8,$9,$2,$3,0*
0 Add four circle primitives for the rounded corners*
1,1,$1+$1,$2,$3*
1,1,$1+$1,$4,$5*
1,1,$1+$1,$6,$7*
1,1,$1+$1,$8,$9*
0 Add four rect primitives between the rounded corners*
20,1,$1+$1,$2,$3,$4,$5,0*
20,1,$1+$1,$4,$5,$6,$7,0*
20,1,$1+$1,$6,$7,$8,$9,0*
20,1,$1+$1,$8,$9,$2,$3,0*%
G04 Aperture macros list end*
%ADD10RoundRect,0.150000X-0.725000X-0.150000X0.725000X-0.150000X0.725000X0.150000X-0.725000X0.150000X0*%
%ADD11RoundRect,0.200000X-0.200000X-0.275000X0.200000X-0.275000X0.200000X0.275000X-0.200000X0.275000X0*%
%ADD12RoundRect,0.225000X-0.225000X-0.250000X0.225000X-0.250000X0.225000X0.250000X-0.225000X0.250000X0*%
G04 APERTURE END LIST*
D10*
%TO.C,U1*%
X120535000Y-87935000D03*
X120535000Y-89205000D03*
X120535000Y-90475000D03*
X120535000Y-91745000D03*
X125685000Y-91745000D03*
X125685000Y-90475000D03*
X125685000Y-89205000D03*
X125685000Y-87935000D03*
%TD*%
D11*
%TO.C,R19*%
X137175000Y-89000000D03*
X138825000Y-89000000D03*
%TD*%
%TO.C,R18*%
X132525000Y-94020000D03*
X134175000Y-94020000D03*
%TD*%
%TO.C,R17*%
X144885000Y-81800000D03*
X146535000Y-81800000D03*
%TD*%
%TO.C,R16*%
X133165000Y-89000000D03*
X134815000Y-89000000D03*
%TD*%
%TO.C,R15*%
X128515000Y-93680000D03*
X130165000Y-93680000D03*
%TD*%
%TO.C,R14*%
X133165000Y-91510000D03*
X134815000Y-91510000D03*
%TD*%
%TO.C,R13*%
X144885000Y-76780000D03*
X146535000Y-76780000D03*
%TD*%
%TO.C,R12*%
X137175000Y-86490000D03*
X138825000Y-86490000D03*
%TD*%
%TO.C,R11*%
X148895000Y-76780000D03*
X150545000Y-76780000D03*
%TD*%
%TO.C,R10*%
X140875000Y-76780000D03*
X142525000Y-76780000D03*
%TD*%
%TO.C,R9*%
X136225000Y-83980000D03*
X137875000Y-83980000D03*
%TD*%
%TO.C,R8*%
X133165000Y-86490000D03*
X134815000Y-86490000D03*
%TD*%
%TO.C,R7*%
X140875000Y-79290000D03*
X142525000Y-79290000D03*
%TD*%
%TO.C,R6*%
X141185000Y-84310000D03*
X142835000Y-84310000D03*
%TD*%
%TO.C,R5*%
X148895000Y-79290000D03*
X150545000Y-79290000D03*
%TD*%
%TO.C,R4*%
X120065000Y-94320000D03*
X121715000Y-94320000D03*
%TD*%
%TO.C,R3*%
X140875000Y-81800000D03*
X142525000Y-81800000D03*
%TD*%
%TO.C,R2*%
X144885000Y-79290000D03*
X146535000Y-79290000D03*
%TD*%
%TO.C,R1*%
X124075000Y-94320000D03*
X125725000Y-94320000D03*
%TD*%
D12*
%TO.C,C4*%
X214215000Y-91000000D03*
X215765000Y-91000000D03*
%TD*%
%TO.C,C3*%
X218225000Y-91000000D03*
X219775000Y-91000000D03*
%TD*%
%TO.C,C2*%
X214215000Y-93510000D03*
X215765000Y-93510000D03*
%TD*%
%TO.C,C1*%
X115585000Y-101540000D03*
X117135000Y-101540000D03*
%TD*%
M02*
